<svg width="948" height="947" viewBox="0 0 948 947" fill="none" xmlns="http://www.w3.org/2000/svg">
<path fill-rule="evenodd" clip-rule="evenodd" d="M702 26.3279C722 26.3279 800 26.3279 824.5 26.3279C849 26.3279 844.419 48.5 844.419 48.5L748.928 477.799C729.448 563.61 716.104 616.266 708.896 635.766L673.831 733.286C606.234 875.649 495.682 946.792 342.273 946.792C237.662 946.792 154.383 906.039 92.6298 824.455C30.8765 742.87 0 626.016 0 473.903C0 324.39 33.7986 208.023 101.396 124.812C168.993 41.6045 250.325 0 345.195 0C412.208 0 467.142 23.7283 510 71.1818C545.777 110.708 580.974 218.5 592 303.263L580.974 354.5C554.838 275.339 526.327 211.62 495.389 163.334C457.694 104.503 412.5 75.0877 359.805 75.0877C240.876 75.0877 124.5 218.27 124.5 496.5C124.5 760.432 228.506 904.899 342.273 904.899C441.136 904.899 524.026 771.964 571.461 539.23L597.759 408.575L624.058 303.263L678.807 48.5C678.807 48.5 682 26.3279 702 26.3279ZM684 776.22C699.684 838.972 714.509 881.865 728.474 904.899C745.324 932.864 771.039 946.792 805.422 946.792C847.11 946.792 880.714 923.61 906.428 877.11C930.24 833.905 943.869 778.201 947.236 710C947.491 704.83 941.5 694 929.5 694.276C917.5 694.552 912.369 704.941 911.981 710C906.607 780.128 876.587 815.192 822.078 815.192C780.336 815.192 720.525 818.415 695.5 733.286L684 776.22Z" fill="url(#paint0_linear_109_1040)"/>
<defs>
<linearGradient id="paint0_linear_109_1040" x1="631.5" y1="510.5" x2="150.5" y2="947" gradientUnits="userSpaceOnUse">
<stop stop-color="#0F73EA"/>
<stop offset="1" stop-color="#44D8A3"/>
</linearGradient>
</defs>
</svg>
